<?xml version="1.0" encoding="utf-8"?>
<!-- Generator: Adobe Illustrator 23.0.1, SVG Export Plug-In . SVG Version: 6.00 Build 0)  -->
<svg version="1.1" id="Ebene_1" focusable="false" xmlns="http://www.w3.org/2000/svg" xmlns:xlink="http://www.w3.org/1999/xlink"
	 x="0px" y="0px" viewBox="0 0 496 496" style="enable-background:new 0 0 496 496;" xml:space="preserve">
<style type="text/css">
	.st0{fill:#FFFFFF;}
</style>
<path class="st0" d="M248,0C111,0,0,111,0,248s111,248,248,248s248-111,248-248S385,0,248,0z M248,48c110.5,0,200,89.5,200,200
	s-89.5,200-200,200S48,358.5,48,248S137.5,48,248,48"/>
<path class="st0" d="M82.1,373.9c-4.7,4.7-4.7,12.3-0.1,17l22.3,22.4c4.7,4.7,12.3,4.7,17,0.1l292.6-291.2
	c4.7-4.6,4.8-12.2,0.1-16.9l0,0l-22.5-22.7c-4.7-4.7-12.3-4.7-17-0.1L82.1,373.9z"/>
</svg>
