<?xml version="1.0" encoding="utf-8"?>
<!-- Generator: Adobe Illustrator 23.0.1, SVG Export Plug-In . SVG Version: 6.00 Build 0)  -->
<svg version="1.1" id="Ebene_1" focusable="false" xmlns="http://www.w3.org/2000/svg" xmlns:xlink="http://www.w3.org/1999/xlink"
	 x="0px" y="0px" viewBox="0 0 496 496" style="enable-background:new 0 0 496 496;" xml:space="preserve">
<style type="text/css">
	.st0{fill:#FFFFFF;}
</style>
<path class="st0" d="M248,0C111,0,0,111,0,248s111,248,248,248s248-111,248-248S385,0,248,0z M248,48c110.5,0,200,89.5,200,200
	s-89.5,200-200,200S48,358.5,48,248S137.5,48,248,48"/>
<path class="st0" d="M219.7,385.8c0,6.6,5.4,12,12,12.1l31.6,0.1c6.6,0,12-5.4,12.1-12l1-168.3c0.1-6.6-5.2-12-11.9-12l0,0l-32-0.1
	c-6.6,0-12,5.4-12.1,12L219.7,385.8z"/>
<circle class="st0" cx="248" cy="136.4" r="33.2"/>
</svg>
