<?xml version="1.0" encoding="utf-8"?>
<!-- Generator: Adobe Illustrator 23.0.1, SVG Export Plug-In . SVG Version: 6.00 Build 0)  -->
<svg version="1.1" xmlns="http://www.w3.org/2000/svg" xmlns:xlink="http://www.w3.org/1999/xlink" x="0px" y="0px"
	 viewBox="0 0 113.39 113.39" style="enable-background:new 0 0 113.39 113.39;" xml:space="preserve">
<style type="text/css">
	.st0{display:none;}
	.st1{display:inline;}
</style>
<g id="Ebene_1" class="st0">
	<g>
		<g id="xjQaVI.tif" class="st1">
		</g>
	</g>
	<g id="aqIhtE.tif" class="st1">
		
			<image style="overflow:visible;" width="200" height="200" id="Layer_0_2_" xlink:href="BC525A821904A198.png"  transform="matrix(1.1322 0 0 1.1322 -56.5257 -56.5269)">
		</image>
	</g>
</g>
<g id="Ebene_2">
	<path d="M56.69,113.39c-15.89,0-29.56-8.49-30.14-8.85c-1.23-0.77-1.6-2.39-0.82-3.62c0.77-1.23,2.39-1.6,3.62-0.82
		c0.13,0.08,12.95,8.04,27.34,8.04c28.36,0,51.44-23.08,51.44-51.44c0-28.36-23.08-51.44-51.44-51.44c-16.9,0-28.57,8.2-35.38,15.07
		C11.29,30.44,5.14,44.36,5.25,56.67c0.07,7.81,2.69,19.36,9.66,29.6C26.86,70.35,44.1,61.34,59.65,63.12
		c7.07,0.81,18.1,4.46,27.85,12.31c1.13,0.91,1.31,2.56,0.4,3.69c-0.91,1.13-2.56,1.31-3.69,0.4c-8.88-7.14-18.82-10.46-25.16-11.18
		c-14.59-1.67-31.05,7.71-41.94,23.89c-0.47,0.7-1.24,1.13-2.08,1.16c-0.84,0.04-1.64-0.34-2.16-1C3.52,80.45,0.09,66.13,0,56.72
		C-0.12,43.06,6.61,27.7,17.58,16.63C25.1,9.04,37.98,0,56.69,0c31.26,0,56.69,25.43,56.69,56.69
		C113.39,87.95,87.95,113.39,56.69,113.39z"/>
	<path d="M56.46,58.86c-10.65,0-19.31-8.66-19.31-19.31s8.66-19.31,19.31-19.31c10.65,0,19.31,8.66,19.31,19.31
		S67.11,58.86,56.46,58.86z M56.46,25.49c-7.75,0-14.06,6.31-14.06,14.06s6.31,14.06,14.06,14.06c7.75,0,14.06-6.31,14.06-14.06
		S64.21,25.49,56.46,25.49z"/>
</g>
</svg>
