<?xml version="1.0" encoding="utf-8"?>
<!-- Generator: Adobe Illustrator 23.0.1, SVG Export Plug-In . SVG Version: 6.00 Build 0)  -->
<svg version="1.1" xmlns="http://www.w3.org/2000/svg" xmlns:xlink="http://www.w3.org/1999/xlink" x="0px" y="0px"
	 viewBox="0 0 257.22 226.44" style="enable-background:new 0 0 257.22 226.44;" xml:space="preserve">
<style type="text/css">
	.st0{display:none;}
	.st1{display:inline;}
</style>
<g id="Ebene_1" class="st0">
	<g id="xjQaVI.tif" class="st1">
		
			<image style="overflow:visible;" width="511" height="511" id="Layer_0_1_" xlink:href="7DC494B642433D94.png"  transform="matrix(1 0 0 1 -28.1 44.44)">
		</image>
	</g>
</g>
<g id="Ebene_2">
	<g>
		<path d="M112.53,226.44c-12.63,0-22.91-10.28-22.91-22.91s10.28-22.91,22.91-22.91s22.91,10.28,22.91,22.91
			S125.16,226.44,112.53,226.44z M112.53,192.62c-6.01,0-10.91,4.89-10.91,10.91s4.89,10.91,10.91,10.91s10.91-4.89,10.91-10.91
			S118.54,192.62,112.53,192.62z"/>
		<path d="M201.71,226.44c-12.63,0-22.91-10.28-22.91-22.91s10.28-22.91,22.91-22.91s22.91,10.28,22.91,22.91
			S214.34,226.44,201.71,226.44z M201.71,192.62c-6.01,0-10.91,4.89-10.91,10.91s4.89,10.91,10.91,10.91s10.91-4.89,10.91-10.91
			S207.72,192.62,201.71,192.62z"/>
		<path d="M222.23,169.36H103.93c-0.22,0-0.44-0.01-0.66-0.04c-0.77-0.08-18.91-2.4-25.54-29.44L49.83,27.99
			C48.82,23.8,44.45,12,37.7,12H6c-3.31,0-6-2.69-6-6s2.69-6,6-6h31.7c14.08,0,21.58,15.81,23.79,25.16l27.88,111.85
			c4.2,17.09,13.37,19.97,15.08,20.36h117.78c3.31,0,6,2.69,6,6S225.55,169.36,222.23,169.36z"/>
		<path d="M229.41,140.2H82.49c-3.31,0-6-2.69-6-6c0-3.31,2.69-6,6-6H224.7l20.69-84.19c0.79-3.22,4.05-5.18,7.26-4.39
			c3.22,0.79,5.19,4.04,4.39,7.26l-21.81,88.76C234.57,138.32,232.17,140.2,229.41,140.2z"/>
	</g>
</g>
</svg>
