
<svg width="251px" height="101px" viewBox="0 0 251 101" version="1.1" xmlns="http://www.w3.org/2000/svg" xmlns:xlink="http://www.w3.org/1999/xlink">
    <defs>
        <linearGradient x1="50%" y1="-2.48949813e-15%" x2="50%" y2="100%" id="linearGradient-1">
            <stop stop-color="#77D3EC" offset="0%"></stop>
            <stop stop-color="#1680B3" offset="100%"></stop>
        </linearGradient>
        <path d="M5.5532821,100 C4.70616703,100 3.76494219,99.9520644 2.72957934,99.8561917 C1.69421648,99.7603191 0.839270582,99.6324908 0.164715994,99.4727031 L0.164715994,97.1478029 C1.57657443,97.2756331 3.32568393,97.3395473 5.41209696,97.3395473 C6.46314713,97.3395473 7.25926648,97.1877512 7.80047888,96.8841545 C8.34169128,96.5805577 8.61229342,96.0292983 8.61229342,95.2303595 L8.61229342,94.391478 C8.61229342,93.7683058 8.43973553,93.2889497 8.09461458,92.9533955 C7.74949363,92.6178412 7.23966351,92.4500666 6.56510892,92.4500666 L4.94147983,92.4500666 C3.29431165,92.4500666 2.05895405,92.0825603 1.23536996,91.3475366 C0.411785868,90.612513 0,89.4221121 0,87.7762983 L0,86.8655126 C0,85.2037201 0.45492534,83.9813621 1.36478967,83.1984021 C2.274654,82.4154422 3.62374293,82.023968 5.41209696,82.023968 C6.22783739,82.023968 7.11807922,82.0798929 8.08284915,82.1917443 C9.04761909,82.3035958 9.87511259,82.431424 10.5653545,82.575233 L10.5653545,84.9001332 C8.44756684,84.7563242 6.83964107,84.6844208 5.74152895,84.6844208 C4.75322804,84.6844208 4.01201348,84.8482008 3.51786302,85.1757656 C3.02371257,85.5033305 2.77664105,86.1065202 2.77664105,86.9853529 L2.77664105,87.5845539 C2.77664105,88.3035988 2.96880779,88.8229012 3.35314703,89.1424767 C3.73748627,89.4620522 4.32183003,89.6218375 5.10619583,89.6218375 L6.91807176,89.6218375 C8.37699215,89.6218375 9.48685311,90.0252956 10.2476879,90.8322237 C11.0085228,91.6391518 11.3889345,92.7057191 11.3889345,94.0319574 L11.3889345,95.1584554 C11.3889345,96.9960145 10.8869479,98.2623134 9.88295966,98.9573901 C8.87897144,99.6524669 7.43576002,100 5.5532821,100 Z M22.4941145,82.1677763 L29.6710257,82.1677763 C31.0671968,82.1677763 32.2201972,82.5712343 33.1300616,83.3781625 C34.0399259,84.1850906 34.4948512,85.7549817 34.4948512,88.0878828 C34.4948512,92.1464917 32.9026125,94.1757656 29.7180874,94.1757656 C29.2317806,94.1757656 28.5180184,94.1358193 27.5767795,94.0559254 C26.6355405,93.9760316 25.9060913,93.8961389 25.3884098,93.816245 L25.3884098,99.8561917 L22.4941145,99.8561917 L22.4941145,82.1677763 Z M29.294532,91.4913449 C30.0161485,91.4913449 30.5769616,91.227699 30.9769882,90.7003995 C31.3770148,90.1730999 31.577025,89.310259 31.577025,88.1118509 C31.577025,85.9227587 30.8475758,84.828229 29.3886554,84.828229 L25.3884098,84.828229 L25.3884098,91.4913449 L29.294532,91.4913449 Z M48.5413883,82.1677763 L52.2122019,82.1677763 L57.8596074,99.8561917 L54.8241269,99.8561917 L53.4828681,95.6617843 L47.2001295,95.6617843 L45.8824015,99.8561917 L42.8939828,99.8561917 L48.5413883,82.1677763 Z M52.7769424,93.0013316 L50.3297334,84.7083888 L47.8825243,93.0013316 L52.7769424,93.0013316 Z M73.8592056,100 C72.3845979,100 71.2080668,99.7643166 70.3295771,99.2929427 C69.4510874,98.8215689 68.7804647,97.9307655 68.3176889,96.620506 C67.8549131,95.3102464 67.6235286,93.41679 67.6235286,90.9400799 C67.6235286,88.5912 67.8588348,86.7656523 68.3294543,85.4633822 C68.8000738,84.161112 69.4903053,83.2583248 70.4001697,82.7549933 C71.310034,82.2516619 72.4865651,82 73.9297981,82 C74.8710371,82 75.8161837,82.075898 76.7652663,82.2276964 C77.7143489,82.3794948 78.5261554,82.5592533 79.2007099,82.7669774 L79.2007099,85.0439414 C78.7300905,84.9480688 78.0594678,84.8601868 77.1888217,84.7802929 C76.3181757,84.7003991 75.4279339,84.6604527 74.5180695,84.6604527 C73.4827067,84.6604527 72.6865873,84.8242327 72.1296876,85.1517976 C71.5727879,85.4793625 71.1688456,86.0905415 70.9178485,86.9853529 C70.6668515,87.8801643 70.5413548,89.214372 70.5413548,90.988016 C70.5413548,92.76166 70.6590079,94.0958677 70.8943177,94.9906791 C71.1296274,95.8854905 71.5218044,96.5006641 72.0708605,96.8362184 C72.6199165,97.1717726 73.4278012,97.3395473 74.4945387,97.3395473 C76.2828927,97.3395473 77.8516008,97.2516653 79.2007099,97.0758988 L79.2007099,99.3528628 C77.7731642,99.7842898 75.9926805,100 73.8592056,100 Z M93.906111,99.976032 C92.8079989,99.976032 91.8628523,99.7283647 91.0706428,99.2330226 C90.2784333,98.7376806 89.8823346,97.7390222 89.8823346,96.2370173 L89.8823346,86.0266312 C89.8823346,84.6684353 90.2431374,83.6857554 90.9647539,83.0785619 C91.6863705,82.4713685 92.5570035,82.1677763 93.576679,82.1677763 C95.0512867,82.1677763 96.3219402,82.1917441 97.3886777,82.2396804 C98.4554152,82.2876168 99.6790075,82.3515309 101.059491,82.4314248 L101.059491,84.9001332 L94.4943824,84.9001332 C93.9453263,84.9001332 93.5217752,85.0399453 93.2237162,85.3195739 C92.9256572,85.5992025 92.7766299,86.018639 92.7766299,86.5778961 L92.7766299,89.7177097 L100.000603,89.885486 L100.000603,92.2103862 L92.7766299,92.3781625 L92.7766299,95.4221039 C92.7766299,96.6045332 93.3413648,97.195739 94.4708515,97.195739 L101.059491,97.195739 L101.059491,99.6644474 C99.0828895,99.8402139 96.6984532,99.9440744 93.906111,99.976032 Z M130.65854,99.976032 C129.560428,99.976032 128.615282,99.7283647 127.823072,99.2330226 C127.030863,98.7376806 126.634764,97.7390222 126.634764,96.2370173 L126.634764,86.0266312 C126.634764,84.6684353 126.995567,83.6857554 127.717183,83.0785619 C128.4388,82.4713685 129.309433,82.1677763 130.329108,82.1677763 C131.803716,82.1677763 133.07437,82.1917441 134.141107,82.2396804 C135.207844,82.2876168 136.431437,82.3515309 137.811921,82.4314248 L137.811921,84.9001332 L131.246812,84.9001332 C130.697756,84.9001332 130.274204,85.0399453 129.976145,85.3195739 C129.678086,85.5992025 129.529059,86.018639 129.529059,86.5778961 L129.529059,89.7177097 L136.753032,89.885486 L136.753032,92.2103862 L129.529059,92.3781625 L129.529059,95.4221039 C129.529059,96.6045332 130.093794,97.195739 131.223281,97.195739 L137.811921,97.195739 L137.811921,99.6644474 C135.835319,99.8402139 133.450883,99.9440744 130.65854,99.976032 Z M154.046827,100 C153.199712,100 152.258487,99.9520644 151.223125,99.8561917 C150.187762,99.7603191 149.332816,99.6324908 148.658261,99.4727031 L148.658261,97.1478029 C150.07012,97.2756331 151.819229,97.3395473 153.905642,97.3395473 C154.956692,97.3395473 155.752812,97.1877512 156.294024,96.8841545 C156.835236,96.5805577 157.105839,96.0292983 157.105839,95.2303595 L157.105839,94.391478 C157.105839,93.7683058 156.933281,93.2889497 156.58816,92.9533955 C156.243039,92.6178412 155.733209,92.4500666 155.058654,92.4500666 L153.435025,92.4500666 C151.787857,92.4500666 150.552499,92.0825603 149.728915,91.3475366 C148.905331,90.612513 148.493545,89.4221121 148.493545,87.7762983 L148.493545,86.8655126 C148.493545,85.2037201 148.948471,83.9813621 149.858335,83.1984021 C150.768199,82.4154422 152.117288,82.023968 153.905642,82.023968 C154.721383,82.023968 155.611624,82.0798929 156.576394,82.1917443 C157.541164,82.3035958 158.368658,82.431424 159.0589,82.575233 L159.0589,84.9001332 C156.941112,84.7563242 155.333186,84.6844208 154.235074,84.6844208 C153.246773,84.6844208 152.505559,84.8482008 152.011408,85.1757656 C151.517258,85.5033305 151.270186,86.1065202 151.270186,86.9853529 L151.270186,87.5845539 C151.270186,88.3035988 151.462353,88.8229012 151.846692,89.1424767 C152.231031,89.4620522 152.815375,89.6218375 153.599741,89.6218375 L155.411617,89.6218375 C156.870537,89.6218375 157.980398,90.0252956 158.741233,90.8322237 C159.502068,91.6391518 159.88248,92.7057191 159.88248,94.0319574 L159.88248,95.1584554 C159.88248,96.9960145 159.380493,98.2623134 158.376505,98.9573901 C157.372517,99.6524669 155.929305,100 154.046827,100 Z M174.729066,84.828229 L169.740524,84.828229 L169.740524,82.1677763 L182.611903,82.1677763 L182.611903,84.828229 L177.646892,84.828229 L177.646892,99.8561917 L174.729066,99.8561917 L174.729066,84.828229 Z M196.305477,82.1677763 L199.976291,82.1677763 L205.623696,99.8561917 L202.588216,99.8561917 L201.246957,95.6617843 L194.964218,95.6617843 L193.64649,99.8561917 L190.658071,99.8561917 L196.305477,82.1677763 Z M200.541031,93.0013316 L198.093822,84.7083888 L195.646613,93.0013316 L200.541031,93.0013316 Z M218.634875,84.828229 L213.646334,84.828229 L213.646334,82.1677763 L226.517712,82.1677763 L226.517712,84.828229 L221.552702,84.828229 L221.552702,99.8561917 L218.634875,99.8561917 L218.634875,84.828229 Z M240.84662,99.976032 C239.748508,99.976032 238.803361,99.7283647 238.011151,99.2330226 C237.218942,98.7376806 236.822843,97.7390222 236.822843,96.2370173 L236.822843,86.0266312 C236.822843,84.6684353 237.183646,83.6857554 237.905263,83.0785619 C238.626879,82.4713685 239.497512,82.1677763 240.517188,82.1677763 C241.991795,82.1677763 243.262449,82.1917441 244.329186,82.2396804 C245.395924,82.2876168 246.619516,82.3515309 248,82.4314248 L248,84.9001332 L241.434891,84.9001332 C240.885835,84.9001332 240.462284,85.0399453 240.164225,85.3195739 C239.866166,85.5992025 239.717139,86.018639 239.717139,86.5778961 L239.717139,89.7177097 L246.941111,89.885486 L246.941111,92.2103862 L239.717139,92.3781625 L239.717139,95.4221039 C239.717139,96.6045332 240.281873,97.195739 241.41136,97.195739 L248,97.195739 L248,99.6644474 C246.023398,99.8402139 243.638962,99.9440744 240.84662,99.976032 Z" id="path-2"></path>
        <filter x="-0.6%" y="-8.3%" width="101.2%" height="116.7%" filterUnits="objectBoundingBox" id="filter-3">
            <feOffset dx="0" dy="0" in="SourceAlpha" result="shadowOffsetOuter1"></feOffset>
            <feGaussianBlur stdDeviation="0.5" in="shadowOffsetOuter1" result="shadowBlurOuter1"></feGaussianBlur>
            <feColorMatrix values="0 0 0 0 0.563490716   0 0 0 0 0.563490716   0 0 0 0 0.563490716  0 0 0 0.5 0" type="matrix" in="shadowBlurOuter1"></feColorMatrix>
        </filter>
        <linearGradient x1="50%" y1="0%" x2="50%" y2="100%" id="linearGradient-4">
            <stop stop-color="#FFFFFF" offset="0%"></stop>
            <stop stop-color="#B4B4B4" offset="100%"></stop>
        </linearGradient>
        <path d="M249,12.0642509 C137.898913,-10.0024434 34.6299214,15.148586 2,64 L15.0346699,64 C47.4982803,15.148586 162.624193,-4.12611844 249,12.0642509 Z" id="path-5"></path>
        <filter x="-0.8%" y="-1.7%" width="101.6%" height="106.7%" filterUnits="objectBoundingBox" id="filter-6">
            <feOffset dx="0" dy="1" in="SourceAlpha" result="shadowOffsetOuter1"></feOffset>
            <feGaussianBlur stdDeviation="0.5" in="shadowOffsetOuter1" result="shadowBlurOuter1"></feGaussianBlur>
            <feColorMatrix values="0 0 0 0 0   0 0 0 0 0   0 0 0 0 0  0 0 0 0.5 0" type="matrix" in="shadowBlurOuter1"></feColorMatrix>
        </filter>
    </defs>
    <g id="Symbols" stroke="none" stroke-width="1" fill="none" fill-rule="evenodd">
        <g id="ASTRO---dark-bg" transform="translate(1.000000, 0.000000)">
            <g id="ASTRO">
                <g id="SPACEESTATE" fill-rule="nonzero">
                    <use fill="black" fill-opacity="1" filter="url(#filter-3)" xlink:href="#path-2"></use>
                    <use fill="url(#linearGradient-1)" xlink:href="#path-2"></use>
                </g>
                <path d="M44.5534265,63.7415882 L29.7410668,10.9394347 L15.0143276,63.7415882 L2,63.7415882 L21.8639738,0 L37.8750216,0 L57.7389953,63.7415882 L44.5534265,63.7415882 Z M92.886242,64 C91.2594429,64 89.5185086,63.8995075 87.6633868,63.6985195 C85.8082651,63.4975315 84.2385702,63.2391223 82.9542551,62.923284 L82.9542551,57.884253 C85.4943449,58.1426662 88.7050845,58.2718708 92.58657,58.2718708 C94.3275304,58.2718708 95.6403661,58.0349956 96.5251165,57.5612382 C97.4098669,57.0874808 97.8522355,56.2476507 97.8522355,55.0417227 L97.8522355,53.8788694 C97.8522355,52.9313546 97.5739714,52.2063731 97.0174348,51.7039031 C96.4608983,51.2014331 95.6689159,50.9502019 94.6414638,50.9502019 L91.9444157,50.9502019 C88.8049788,50.9502019 86.4575715,50.2611105 84.9021233,48.8829071 C83.346675,47.5047037 82.5689625,45.2508008 82.5689625,42.1211306 L82.5689625,40.5706595 C82.5689625,34.5984448 85.9794814,31.6123822 92.8006214,31.6123822 C94.3988802,31.6123822 96.0541948,31.7200528 97.7666149,31.935397 C99.479035,32.1507413 101.02019,32.4019725 102.390126,32.6890983 L102.390126,37.7281292 C98.4801001,37.4697161 95.5262198,37.3405114 93.5283963,37.3405114 C91.9015973,37.3405114 90.6743813,37.5917427 89.8467115,38.0942127 C89.0190418,38.5966826 88.6052132,39.5226492 88.6052132,40.87214 L88.6052132,41.7335128 C88.6052132,42.8245905 88.9120172,43.6213524 89.5256344,44.1238223 C90.1392516,44.6262923 91.0739335,44.8775236 92.3297083,44.8775236 L95.4548593,44.8775236 C98.1947315,44.8775236 100.28528,45.6312172 101.726567,47.1386272 C103.167853,48.6460371 103.888486,50.6199968 103.888486,53.0605653 L103.888486,54.8694482 C103.888486,57.2813041 103.446118,59.1547713 102.561367,60.4899058 C101.676617,61.8250403 100.435131,62.7438288 98.8368721,63.2462988 C97.2386133,63.7487688 95.2550898,64 92.886242,64 Z M136.595546,37.5989233 L127.905058,37.5989233 L127.905058,31.8707941 L151.664768,31.8707941 L151.664768,37.5989233 L142.931469,37.5989233 L142.931469,63.7415882 L136.595546,63.7415882 L136.595546,37.5989233 Z M176.494735,31.8707941 L189.594683,31.8707941 C192.391636,31.8707941 194.596344,32.6244878 196.208873,34.1318977 C197.821402,35.6393077 198.627654,38.2880026 198.627654,42.0780619 C198.627654,44.748331 198.178151,46.7294686 197.27913,48.0215343 C196.380109,49.3136 195.160028,50.2898128 193.61885,50.9502019 L199.52667,63.7415882 L193.062317,63.7415882 L187.967892,51.9407806 C186.597956,51.9407806 184.885562,51.9120685 182.830658,51.8546433 L182.830658,63.7415882 L176.494735,63.7415882 L176.494735,31.8707941 Z M188.481616,46.8156124 C189.70885,46.8156124 190.650667,46.4638887 191.307095,45.7604307 C191.963522,45.0569727 192.291731,43.8295287 192.291731,42.0780619 C192.291731,40.3840202 191.963522,39.2140005 191.307095,38.5679677 C190.650667,37.9219349 189.70885,37.5989233 188.481616,37.5989233 L182.830658,37.5989233 L182.830658,46.8156124 L188.481616,46.8156124 Z M236.985672,64 C233.874776,64 231.391804,63.583674 229.536682,62.7510094 C227.68156,61.9183449 226.283105,60.3391772 225.341274,58.013459 C224.399443,55.6877407 223.928534,52.2997082 223.928534,47.8492598 C223.928534,43.3988113 224.406578,40.0036008 225.362679,37.6635262 C226.31878,35.3234517 227.724371,33.7227499 229.579492,32.8613728 C231.434614,31.9999957 233.903316,31.5693136 236.985672,31.5693136 C240.096569,31.5693136 242.572406,31.9999957 244.413257,32.8613728 C246.254109,33.7227499 247.645429,35.3234517 248.58726,37.6635262 C249.529092,40.0036008 250,43.3988113 250,47.8492598 C250,52.2997082 249.529092,55.6877407 248.58726,58.013459 C247.645429,60.3391772 246.254109,61.9183449 244.413257,62.7510094 C242.572406,63.583674 240.096569,64 236.985672,64 Z M236.985672,58.2718708 C238.783713,58.2718708 240.146494,58.0062835 241.074055,57.4751009 C242.001616,56.9439184 242.665169,55.9389935 243.064733,54.4602961 C243.464298,52.9815987 243.664077,50.777942 243.664077,47.8492598 C243.664077,44.8057273 243.464298,42.5446462 243.064733,41.0659489 C242.665169,39.5872515 242.001616,38.5895046 241.074055,38.0726783 C240.146494,37.5558521 238.783713,37.2974428 236.985672,37.2974428 C235.216172,37.2974428 233.867661,37.5558521 232.9401,38.0726783 C232.012539,38.5895046 231.334716,39.5944295 230.906611,41.0874832 C230.478506,42.5805369 230.264457,44.8344398 230.264457,47.8492598 C230.264457,50.8066545 230.464236,53.0174893 230.863801,54.4818304 C231.263366,55.9461715 231.926919,56.9439184 232.85448,57.4751009 C233.78204,58.0062835 235.159091,58.2718708 236.985672,58.2718708 Z" fill="url(#linearGradient-4)" fill-rule="nonzero"></path>
                <g id="Oval">
                    <use fill="black" fill-opacity="1" filter="url(#filter-6)" xlink:href="#path-5"></use>
                    <use fill="#B4B4B4" fill-rule="evenodd" xlink:href="#path-5"></use>
                </g>
            </g>
        </g>
    </g>
</svg>